<?xml version="1.0" standalone="no"?>
<!DOCTYPE svg PUBLIC "-//W3C//DTD SVG 20010904//EN"
 "http://www.w3.org/TR/2001/REC-SVG-20010904/DTD/svg10.dtd">
<svg version="1.0" xmlns="http://www.w3.org/2000/svg"
 width="600.000000pt" height="600.000000pt" viewBox="0 0 600.000000 600.000000"
 preserveAspectRatio="xMidYMid meet">
<metadata>
Created by potrace 1.14, written by Peter Selinger 2001-2017
</metadata>
<g transform="translate(0.000000,600.000000) scale(0.100000,-0.100000)"
fill="#000000" stroke="none">
<path d="M2015 5769 c-22 -4 -53 -9 -70 -12 -147 -24 -446 -170 -645 -315
-110 -79 -249 -225 -285 -297 -67 -136 -32 -338 105 -615 138 -280 341 -525
497 -602 57 -28 77 -33 142 -33 119 0 199 18 365 85 364 145 725 443 752 622
24 157 -45 387 -194 648 -96 167 -158 248 -282 370 -107 105 -184 147 -280
153 -36 2 -83 0 -105 -4z"/>
<path d="M4922 4979 c-151 -18 -389 -109 -557 -214 -232 -144 -391 -286 -454
-405 -30 -55 -35 -76 -37 -140 -4 -128 43 -295 138 -484 158 -314 377 -565
543 -621 52 -17 150 -19 220 -2 22 5 47 10 56 12 114 23 284 98 453 198 137
81 237 157 327 246 123 123 161 198 161 317 -1 287 -297 822 -561 1014 -101
74 -170 92 -289 79z"/>
<path d="M3178 3945 c-2 -1 -33 -5 -69 -8 -329 -27 -881 -362 -1020 -620 -29
-54 -34 -73 -36 -142 -2 -97 15 -184 63 -313 125 -338 398 -698 591 -779 51
-21 70 -24 135 -24 353 4 983 390 1091 667 16 43 18 178 2 253 -11 55 -64 200
-106 290 -111 238 -310 502 -453 600 -42 30 -136 75 -136 66 0 -2 -13 0 -29 5
-16 4 -31 7 -33 5z"/>
<path d="M1240 2890 c-19 -4 -49 -10 -67 -14 -159 -31 -446 -175 -638 -318
-195 -146 -323 -326 -309 -433 1 -11 4 -42 7 -70 32 -306 329 -803 582 -974
22 -15 60 -36 85 -45 215 -86 764 148 1073 457 110 110 150 184 153 287 5 130
-41 289 -137 482 -70 140 -186 321 -253 395 -112 123 -212 201 -289 227 -49
17 -146 19 -207 6z"/>
<path d="M4115 2096 c-403 -78 -956 -468 -991 -699 -49 -323 345 -1016 652
-1148 181 -77 575 55 924 308 109 80 249 226 285 298 27 54 30 69 30 155 -1
106 -13 166 -60 290 -99 260 -261 511 -432 669 -135 125 -243 159 -408 127z"/>
</g>
</svg>
